<svg width="413" height="242" viewBox="0 0 413 242" fill="none" xmlns="http://www.w3.org/2000/svg">
<path d="M183.435 233.599H176.826C175.151 233.599 173.788 232.237 173.788 230.563V163.587C173.788 161.913 175.151 160.552 176.826 160.552H183.435C185.11 160.552 186.473 161.913 186.473 163.587V230.563C186.457 232.237 185.11 233.599 183.435 233.599Z" fill="#EBF3FA"/>
<path d="M200.707 233.599H194.099C192.423 233.599 191.061 232.237 191.061 230.563V163.587C191.061 161.913 192.423 160.552 194.099 160.552H200.707C202.383 160.552 203.745 161.913 203.745 163.587V230.563C203.745 232.237 202.383 233.599 200.707 233.599Z" fill="#EBF3FA"/>
<path d="M217.98 233.599H211.372C209.696 233.599 208.334 232.237 208.334 230.563V163.587C208.334 161.913 209.696 160.552 211.372 160.552H217.98C219.656 160.552 221.018 161.913 221.018 163.587V230.563C221.018 232.237 219.656 233.599 217.98 233.599Z" fill="#EBF3FA"/>
<path d="M235.253 233.599H228.644C226.969 233.599 225.606 232.237 225.606 230.563V163.587C225.606 161.913 226.969 160.552 228.644 160.552H235.253C236.928 160.552 238.291 161.913 238.291 163.587V230.563C238.291 232.237 236.928 233.599 235.253 233.599Z" fill="#EBF3FA"/>
<path d="M252.525 233.599H245.917C244.241 233.599 242.879 232.237 242.879 230.563V163.587C242.879 161.913 244.241 160.552 245.917 160.552H252.525C254.201 160.552 255.563 161.913 255.563 163.587V230.563C255.563 232.237 254.201 233.599 252.525 233.599Z" fill="#EBF3FA"/>
<path d="M269.814 233.599H263.205C261.53 233.599 260.167 232.237 260.167 230.563V163.587C260.167 161.913 261.53 160.552 263.205 160.552H269.814C271.489 160.552 272.852 161.913 272.852 163.587V230.563C272.836 232.237 271.489 233.599 269.814 233.599Z" fill="#EBF3FA"/>
<path d="M274.778 0.143066V146.158H175.088V62.9579C175.73 62.4886 176.388 62.0036 177.03 61.5029C185.095 55.2919 192.643 47.4224 198.86 37.7538C202.43 32.2154 206.627 27.3029 211.356 23.0161C214.3 20.3565 217.448 17.9158 220.768 15.7412C222.882 14.3488 225.074 13.0502 227.313 11.8456C233.295 8.63833 239.716 6.11948 246.434 4.24207C247.092 4.05433 247.749 3.88223 248.407 3.71014C249.942 3.31901 251.476 2.95918 253.042 2.63063C254.107 2.39595 255.188 2.19257 256.268 2.00483C257.584 1.77015 258.915 1.55112 260.261 1.36338C263.91 0.831449 267.606 0.487258 271.333 0.299517C272.038 0.268227 272.742 0.236937 273.463 0.205647C273.87 0.158711 274.324 0.158711 274.778 0.143066Z" fill="#EBF3FA"/>
<path d="M274.778 0.143107C274.324 0.158752 273.87 0.158752 273.416 0.174397V143.827H177.014V61.503C176.372 62.0036 175.73 62.4886 175.073 62.958C173.882 63.8185 172.692 64.6633 171.486 65.4612V149.725H278.928V0.111816C277.565 0.111816 276.172 0.111816 274.778 0.143107Z" fill="#C2D2FF"/>
<path d="M284.941 150.023H165.88V147.645C165.88 145.939 167.258 144.562 168.965 144.562H281.919C283.579 144.562 284.941 145.908 284.941 147.582V150.023Z" fill="#C2D2FF"/>
<path d="M227.313 11.8457V145.658H220.768V15.7413C222.882 14.3489 225.058 13.0504 227.313 11.8457Z" fill="#C2D2FF"/>
<path d="M225.105 78.1652H224.573C224.213 78.1652 223.931 77.8835 223.915 77.5237L223.68 69.9984C223.665 69.623 223.962 69.3101 224.338 69.3101H225.34C225.716 69.3101 226.014 69.623 225.998 69.9984L225.747 77.5237C225.747 77.8835 225.465 78.1652 225.105 78.1652Z" fill="#9DB0F4"/>
<path d="M264.834 75.2236L273.447 76.397L264.505 143.874L255.892 142.701L264.834 75.2236Z" fill="#D2E4FF"/>
<path d="M264.677 142.669L264.505 143.874L255.892 142.701L256.049 141.496L264.677 142.669Z" fill="#F7941D"/>
<path d="M273.541 75.8023L273.369 77.007L264.756 75.8336L264.912 74.6289L273.541 75.8023Z" fill="#F7941D"/>
<path d="M260.762 139.071C259.901 138.961 259.306 138.164 259.416 137.287C259.525 136.427 260.324 135.817 261.17 135.926C262.031 136.036 262.626 136.834 262.516 137.71C262.407 138.586 261.624 139.196 260.762 139.071Z" fill="#F7941D"/>
<path d="M268.091 83.7343C267.23 83.6248 266.635 82.8269 266.744 81.9508C266.854 81.0746 267.653 80.4801 268.498 80.5896C269.36 80.6992 269.955 81.4971 269.845 82.3732C269.735 83.2493 268.952 83.8595 268.091 83.7343Z" fill="#F7941D"/>
<path d="M260.919 104.777C262.814 105.418 264.051 107.343 263.785 109.439C263.503 111.52 261.812 113.053 259.807 113.163L260.919 104.777Z" fill="#F7941D"/>
<path d="M233.53 143.859H209.399C208.287 143.859 207.394 142.967 207.394 141.856V141.825C207.394 140.714 208.287 139.822 209.399 139.822H233.53C234.642 139.822 235.535 140.714 235.535 141.825V141.856C235.535 142.967 234.642 143.859 233.53 143.859Z" fill="#ED7D2B"/>
<path d="M188.242 143.858H215.146C216.633 143.858 217.855 142.638 217.855 141.152V120.61C217.855 119.124 216.633 117.903 215.146 117.903H188.242C186.755 117.903 185.533 119.124 185.533 120.61V141.136C185.517 142.638 186.739 143.858 188.242 143.858Z" fill="#ED7D2B"/>
<path d="M210.792 118.013C210.792 118.013 204.09 113.742 197.685 113.695C193.504 113.664 188.743 117.825 188.462 117.872C187.741 117.982 190.873 118.029 190.873 118.029C190.873 118.029 195.587 115.244 197.701 115.181C200.253 115.103 206.752 118.248 206.752 118.248L210.792 118.013Z" fill="#F7941D"/>
<path d="M185.095 143.858H211.998C213.486 143.858 214.707 142.638 214.707 141.152V120.61C214.707 119.124 213.486 117.903 211.998 117.903H185.095C183.607 117.903 182.386 119.124 182.386 120.61V141.136C182.386 142.638 183.607 143.858 185.095 143.858Z" fill="#F7941D"/>
<path d="M296.905 186.836H260.872V184.583H296.905C300.695 184.583 303.795 181.501 303.795 177.699V3.02197H306.05V177.699C306.05 182.737 301.948 186.836 296.905 186.836Z" fill="#EBF3FA"/>
<path d="M287.447 185.506H285.192V240.389H287.447V185.506Z" fill="#EBF3FA"/>
<path d="M279.773 240.373H241.172L239.731 208.332H281.089L279.773 240.373Z" fill="#9DB0F4"/>
<path d="M281.261 209.568H238.933C238.588 209.568 238.322 209.286 238.322 208.958V208.77C238.322 208.426 238.604 208.16 238.933 208.16H281.261C281.605 208.16 281.872 208.441 281.872 208.77V208.958C281.872 209.302 281.605 209.568 281.261 209.568Z" fill="#C2D2FF"/>
<path d="M276.688 219.095H244.038V227.888H276.688V219.095Z" fill="#C2D2FF"/>
<path d="M303.028 240.373H269.829L268.592 199.805H304.156L303.028 240.373Z" fill="#FF9E55"/>
<path d="M304.829 198.741H267.371V201.855H304.829V198.741Z" fill="#E58638"/>
<path d="M300.382 213.432H272.304V224.555H300.382V213.432Z" fill="#FFE4CC"/>
<path d="M137.787 237.462L171.502 231.345V240.857H137.615C137.615 240.842 137.943 237.306 137.787 237.462Z" fill="#F7941D"/>
<path d="M194.412 231.345H171.502V240.857H194.412V231.345Z" fill="#E58638"/>
<path d="M310.607 106.639L307.444 98.6598C307.147 97.9245 307.522 97.0796 308.258 96.7824L308.305 96.7667C309.041 96.4695 309.887 96.845 310.185 97.5803L313.348 105.559C313.645 106.295 313.27 107.139 312.534 107.437L312.487 107.452C311.735 107.75 310.889 107.374 310.607 106.639Z" fill="#2A4E96"/>
<path d="M301.822 94.9203L311.688 91.0091C312.502 90.6805 313.426 91.0873 313.755 91.9009L314.663 94.1694C314.992 94.9829 314.585 95.906 313.771 96.2345L303.905 100.146C303.091 100.474 302.167 100.068 301.838 99.254L300.945 96.9855C300.617 96.172 301.008 95.2489 301.822 94.9203Z" fill="#2A4E96"/>
<path d="M301.386 98.1116L314.197 93.0396L311.601 86.4942L298.79 91.5662L301.386 98.1116Z" fill="#AFCDFB"/>
<path d="M299.489 93.199C299.489 93.199 300.867 93.6371 302.48 92.5263C304.093 91.4155 303.341 90.5237 305.267 90.821C307.209 91.1182 308.885 90.2577 309.182 89.4755C309.48 88.6932 312.565 88.8497 312.565 88.8497L311.609 86.5029L298.784 91.5719L299.489 93.199Z" fill="white"/>
<path d="M312.33 105.997C312.408 106.185 312.314 106.404 312.111 106.482C311.923 106.56 311.688 106.466 311.625 106.263C311.547 106.075 311.641 105.856 311.845 105.778C312.033 105.7 312.252 105.794 312.33 105.997Z" fill="#98C6F4"/>
<path d="M306.959 68.7464C306.959 68.7464 304.813 64.3033 303.075 62.9265C301.337 61.5497 296.701 61.8783 296.514 62.2381C295.965 63.3333 300.241 65.0386 300.726 66.0398C301.211 67.0411 299.176 66.9473 300.742 68.6839C302.073 70.1545 305.252 71.5626 305.252 71.5626L306.959 68.7464Z" fill="#FFB27D"/>
<path d="M305.095 68.246C306.223 66.4938 306.552 66.3999 306.552 66.3999C306.552 66.3999 325.171 73.8157 326.956 74.4415C328.726 75.0673 355.3 76.6161 355.3 76.6161L363.318 94.2168C363.318 94.2168 327.911 86.144 323.448 84.4856C316.057 81.7477 304.203 71.0152 304.203 71.0152C304.203 71.0152 304.218 69.6228 305.095 68.246Z" fill="#E58638"/>
<path d="M351.354 232.863C351.354 232.863 350.947 239.387 349.741 240.936H331.059C331.184 240.279 331.701 238.683 334.034 238.276C336.978 237.76 341.927 235.695 343.712 231.799C345.607 227.684 351.354 232.863 351.354 232.863Z" fill="#163560"/>
<path d="M384.506 231.956C384.506 231.956 385.664 240.435 384.067 240.592C383.848 240.607 376.958 240.607 374.264 240.592C370.913 240.576 365.542 240.607 365.542 240.607C364.853 240.639 364.398 239.888 364.743 239.293C365.135 238.636 365.87 237.932 367.28 237.666C370.224 237.103 375.125 234.944 376.848 231.017C378.665 226.871 384.506 231.956 384.506 231.956Z" fill="#163560"/>
<path d="M342.585 145.955C342.585 145.955 347.282 162.366 360.734 190.887C374.201 219.393 375.235 232.394 375.235 232.394L384.506 231.956C384.506 231.956 383.629 198.021 377.271 183.628C370.913 169.235 369.613 129.872 369.613 129.872L342.585 145.955Z" fill="#233862"/>
<path d="M335.037 131.827C335.037 131.827 334.661 157.25 339.061 188.462C343.461 219.674 341.974 232.925 341.974 232.925L352.513 233.27C352.513 233.27 358.808 202.042 357.007 186.413C355.206 170.783 365.636 132.797 365.636 132.797L335.037 131.827Z" fill="#2A4E96"/>
<path d="M355.848 72.3291L350.868 76.0057L343.681 74.4881C343.775 73.8311 344.26 71.1245 344.683 68.6682C344.714 68.5274 344.73 68.3709 344.761 68.2301C345.137 66.1337 345.45 64.3345 345.45 64.3345L352.168 60.9865L354.674 59.7349C354.674 59.7818 354.486 62.0503 354.455 62.3945C353.985 68.324 355.848 72.3291 355.848 72.3291Z" fill="#FFB27D"/>
<path d="M344.182 70.4829C344.338 70.4204 353.953 67.573 355.003 67.9328C356.052 68.277 356.662 70.2952 356.662 70.2952L341.817 74.5194C341.817 74.5194 342.177 71.3278 344.182 70.4829Z" fill="#E58638"/>
<path d="M370.099 134.972C368.47 142.403 334.473 119.092 334.927 114.555C334.974 114.054 335.021 113.554 335.084 113.053C335.71 106.733 336.305 100.553 336.352 96.5319C336.383 93.0275 336.869 89.4604 337.511 86.2062C338.106 83.2024 338.826 80.4801 339.453 78.3681C339.891 76.8818 340.721 75.5519 341.833 74.5194C342.616 73.7841 343.524 73.1895 344.542 72.7984C344.824 72.6889 345.106 72.5794 345.388 72.5012C349.49 71.3121 355.144 69.8415 356.678 70.2952C360.844 71.5155 363.929 78.8374 366.121 88.1618C370.208 105.606 371.148 130.122 370.099 134.972Z" fill="#F7941D"/>
<path d="M353.953 62.5195C352.481 65.3356 346.985 67.7763 344.699 68.668C344.73 68.5272 344.746 68.3708 344.777 68.23C345.153 66.1335 345.466 64.3344 345.466 64.3344L352.184 60.9863C353.656 60.9863 354.564 61.3618 353.953 62.5195Z" fill="#FCA56B"/>
<path d="M342.193 63.9589C342.193 63.9589 354.298 67.7294 356.537 60.1572C358.777 52.585 361.846 47.9697 354.204 45.2474C346.562 42.5096 344.197 44.9658 342.835 47.3126C341.488 49.6593 339.108 62.7855 342.193 63.9589Z" fill="#FFB27D"/>
<path d="M343.321 46.5774C343.321 46.5774 344.088 55.3856 345.92 55.0101C347.737 54.6346 349.397 54.3374 349.13 56.997C348.864 59.6567 346.327 62.7231 351.949 63.1925C357.571 63.6618 365.651 49.1745 364.101 46.4366C359.654 38.5359 336.884 36.9401 343.321 46.5774Z" fill="#163560"/>
<path d="M335.945 131.827C339.312 133.048 335.882 128.479 335.945 127.541C336.211 123.363 334.567 118.075 335.068 113.053L355.629 100.772C355.629 100.772 360.515 131.64 335.945 131.827Z" fill="#E58638"/>
<path d="M370.099 134.972C361.314 151.227 359.92 157.438 359.92 157.438C352.278 156.562 339.186 141.559 335.037 137.554C335.037 137.554 334.473 119.092 334.927 114.555L341.269 114.368C341.269 114.368 352.748 117.278 355.707 113.335C358.683 109.392 357.399 90.0395 357.399 90.0395L366.121 88.1621C370.208 105.606 372.448 130.607 370.099 134.972Z" fill="#2A4E96"/>
<path d="M317.999 103.823C317.999 103.823 313.817 100.991 313.034 100.756C312.236 100.506 311.782 99.2858 311.641 99.0824C311.171 98.394 310.936 99.6144 311.14 100.068C311.39 100.6 311.75 101.351 310.576 101.179C310.357 101.148 308.462 101.101 308.07 101.977C307.679 102.853 307.334 105.825 309.339 106.733C311.343 107.64 316.292 106.827 316.652 106.921C319.674 107.797 317.999 103.823 317.999 103.823Z" fill="#FFB27D"/>
<path d="M317.967 103.056C317.967 103.056 338.356 106.514 340.173 105.638C343.054 104.229 339.061 83.5624 339.061 83.5624C339.061 83.5624 338.889 78.8845 344.37 77.7737C349.13 76.8194 353.718 80.3708 353.718 80.3708C353.718 80.3708 357.9 84.1099 357.367 88.2402C356.177 97.4239 354.345 116.088 348.191 118.951C340.267 122.644 317.325 108.72 317.325 108.72C317.325 108.72 316.558 107.781 316.668 106.044C316.762 104.527 317.967 103.056 317.967 103.056Z" fill="#F7941D"/>
<path d="M359.09 89.6637L357.398 90.0236C357.398 90.0236 353.828 74.5819 341.817 74.5037C342.6 73.7684 343.508 73.1738 344.526 72.7827C348.927 73.9717 356.569 77.7266 359.09 89.6637Z" fill="#2A4E96"/>
<path d="M305.361 64.2875L298.283 68.496C297.625 68.8872 296.78 68.6838 296.42 68.058L296.404 68.0267C296.028 67.4009 296.263 66.5717 296.921 66.1806L303.999 61.9721C304.657 61.5809 305.502 61.7843 305.862 62.4101L305.878 62.4414C306.254 63.0672 306.019 63.8964 305.361 64.2875Z" fill="#2A4E96"/>
<path d="M297.813 78.0864L288.245 62.0033C287.65 61.002 287.979 59.6878 288.981 59.0933L289.952 58.5144C290.954 57.9199 292.27 58.2484 292.865 59.2497L302.433 75.3328C303.028 76.3341 302.699 77.6483 301.697 78.2428L300.726 78.8217C299.724 79.4318 298.424 79.0876 297.813 78.0864Z" fill="#2A4E96"/>
<path d="M301.227 78.5399L295.417 81.9819L283.672 62.2378L284.878 61.5338L289.482 58.7959L301.227 78.5399Z" fill="#AFCDFB"/>
<path d="M297.077 80.934L295.433 81.9823L283.688 62.2382L284.878 61.5342C285.567 62.0348 288.652 64.3816 288.887 66.9474C289.153 69.8417 292.692 71.766 292.802 73.2993C292.896 74.8325 292.802 77.0384 294.681 77.6799C296.529 78.3213 297.077 80.934 297.077 80.934Z" fill="white"/>
<path d="M304.516 62.8011C304.688 62.6916 304.907 62.7541 305.017 62.9262C305.126 63.0983 305.064 63.3174 304.892 63.4269C304.719 63.5364 304.5 63.4738 304.39 63.3017C304.297 63.1296 304.343 62.9106 304.516 62.8011Z" fill="#98C6F4"/>
<path d="M302.323 67.4634C302.308 67.4478 301.384 66.337 300.475 65.2575C299.802 64.4596 299.395 63.4427 299.097 63.1298C298.408 62.4101 297.829 64.0372 298.847 66.0867C299.708 67.8233 301.305 69.247 301.869 69.6225C302.417 70.0292 302.323 67.4634 302.323 67.4634Z" fill="#FFB27D"/>
<path d="M144.865 170.612C144.583 170.486 144.458 170.158 144.583 169.876L147.042 164.26C147.229 163.822 147.026 163.29 146.587 163.102L134.201 157.689C133.198 157.251 132.744 156.077 133.183 155.076L135.031 150.836C135.469 149.835 136.643 149.381 137.646 149.819L142.782 152.072C143.064 152.197 143.189 152.526 143.064 152.807C142.939 153.089 142.61 153.214 142.328 153.089L137.192 150.836C136.753 150.648 136.221 150.852 136.033 151.29L134.185 155.53C133.997 155.968 134.201 156.5 134.639 156.687L147.026 162.101C148.028 162.539 148.482 163.712 148.044 164.713L145.585 170.33C145.476 170.612 145.147 170.737 144.865 170.612Z" fill="#C2D2FF"/>
<path d="M144.552 172.739L143.299 172.192C142.829 171.989 142.61 171.425 142.813 170.956L145.617 164.557C145.82 164.088 146.384 163.869 146.854 164.072L148.106 164.62C148.576 164.823 148.795 165.386 148.592 165.856L145.789 172.255C145.57 172.74 145.021 172.943 144.552 172.739Z" fill="#F7941D"/>
<path d="M164.095 159.629L162.357 163.603C161.903 164.635 160.697 165.105 159.663 164.651L139.055 155.639C138.022 155.186 137.552 153.981 138.006 152.949L139.744 148.975C140.198 147.942 141.404 147.473 142.438 147.926L163.046 156.938C164.079 157.376 164.549 158.581 164.095 159.629Z" fill="#C2D2FF"/>
<path d="M164.095 159.629L163.5 161.006C163.046 162.038 161.84 162.508 160.806 162.054L140.198 153.042C139.165 152.589 138.695 151.384 139.149 150.351L139.744 148.975C140.198 147.942 141.404 147.473 142.438 147.926L163.046 156.938C164.079 157.376 164.549 158.581 164.095 159.629Z" fill="#EBF3FA"/>
<path d="M107.798 175.728C107.798 175.728 112.277 176.369 113.311 177.543C114.344 178.716 115.002 179.624 114.344 180.14C113.702 180.656 103.821 178.122 103.821 178.122L107.798 175.728Z" fill="#FFB27D"/>
<path d="M97.0088 159.895L109.082 175.337C109.082 175.337 108.049 177.417 104.666 177.809C101.284 178.2 94.1431 175.994 94.1431 175.337C94.1587 174.695 97.0088 159.895 97.0088 159.895Z" fill="#E58638"/>
<path d="M135.25 193.344C131.742 197.381 124.335 200.009 110.038 200.666C108.894 200.713 107.736 200.76 106.577 200.807C105.387 200.838 104.181 200.869 102.991 200.885C99.1072 200.932 95.2392 200.901 91.5592 200.776C87.9888 200.65 84.5906 200.463 81.5056 200.197C75.4766 199.696 70.6691 198.961 68.1792 198.132C67.4275 197.881 66.8951 197.631 66.5976 197.349C66.347 197.115 66.1435 196.849 65.9869 196.551C65.0786 194.877 65.564 192.14 66.6446 189.12C68.2262 184.724 71.1389 179.749 73.112 176.635C73.5035 176.01 73.8637 175.462 74.1612 175.008C74.7563 174.101 75.1321 173.553 75.1321 173.553C75.1321 173.553 81.8032 174.179 90.9484 175.352C92.812 175.587 94.7851 175.853 96.8208 176.15C116.474 178.919 136.048 183.91 136.033 190.544C136.001 191.561 136.064 192.39 135.25 193.344Z" fill="#2B478B"/>
<path d="M110.915 200.588C109.724 200.619 104.181 200.87 102.991 200.885C99.1072 200.932 95.2392 200.901 91.5592 200.776L88.0984 186.836C93.4384 194.283 109.192 200.103 110.915 200.588Z" fill="#2C3A64"/>
<path d="M99.3263 241.093H118.384C118.087 240.373 117.351 239.419 115.597 239.122C112.59 238.59 107.391 236.978 108.049 232.645C108.722 228.264 101.425 227.685 101.425 227.685C101.425 227.685 98.3711 239.419 99.3263 241.093Z" fill="#2C3A64"/>
<path d="M135.547 192.624C135.547 192.624 111.917 229.766 109.944 234.177C109.944 234.177 101.91 234.928 99.9685 229.187C99.9685 229.187 114.015 189.98 120.185 186.757C126.371 183.534 135.547 192.624 135.547 192.624Z" fill="#2B478B"/>
<path d="M87.8948 114.431C87.8948 114.431 96.0378 125.554 103.288 126.149C103.288 126.149 102.364 121.956 100.219 119.312C100.798 118.389 101.299 117.528 101.722 116.777C103.147 114.258 103.774 112.741 103.774 112.741L100.438 106.702L99.7492 103.463C99.1854 104.981 98.5277 106.389 97.7917 107.547C93.9864 113.539 87.8948 114.431 87.8948 114.431Z" fill="#FFB27D"/>
<path d="M97.4785 107.516C97.4785 107.516 96.304 113.085 101.722 116.793C103.147 114.274 103.774 112.757 103.774 112.757L100.438 106.718C97.776 106.327 97.4785 107.516 97.4785 107.516Z" fill="#ED975D"/>
<path d="M104.792 116.12C104.792 116.12 94.5815 110.566 98.1519 104.261C101.707 97.956 102.787 92.9966 109.458 96.282C116.129 99.5675 116.02 102.681 115.346 105.059C114.673 107.468 107.548 117.403 104.792 116.12Z" fill="#FFB27D"/>
<path d="M98.1833 91.7295C98.1206 91.573 97.9327 91.3853 97.4159 91.1506C97.4159 91.1506 97.9327 91.0411 98.4965 91.2445C98.8879 90.5405 99.7805 89.3827 101.159 89.5548C101.159 89.5548 100.344 89.6643 99.9528 90.4153C101.989 89.4609 105.528 89.5548 113.874 93.5756C124.883 98.8636 118.29 104.793 116.474 105.106C114.657 105.419 111.901 101.586 109.067 100.741C106.248 99.9118 104.165 103.714 103.022 103.917C101.879 104.105 102.615 103.276 101.581 102.212C100.548 101.148 99.6083 103.213 99.436 104.731C99.2638 106.248 96.8365 107.39 96.8365 107.39C96.8365 107.39 96.8365 107.39 95.8343 104.809C94.8321 102.227 96.3041 93.513 97.7605 92.105C97.917 91.9798 98.058 91.8546 98.1833 91.7295Z" fill="#2B478B"/>
<path d="M37.2357 228.937C37.2357 228.937 34.8554 232.535 34.3073 233.708C33.7592 234.882 34.8398 237.354 36.4684 237.729C37.9091 238.058 38.1126 240.608 38.1126 240.608H31.1441C30.4081 240.608 29.7347 240.201 29.4528 239.575C28.4662 237.416 28.247 234.616 28.0434 233.677C27.6206 231.706 26.8063 230.047 27.1665 228.029C27.5267 226.027 30.9561 224.869 37.2044 224.884C44.0946 224.9 37.2357 228.937 37.2357 228.937Z" fill="#233862"/>
<path d="M57.7028 185.522C62.9488 191.076 101.503 179.577 98.2772 176.651C97.4629 175.9 97.7291 175.008 97.4002 173.819C95.8029 168.14 98.9819 158.409 100.344 154.638C100.657 153.762 100.877 153.215 100.924 153.105C102.223 149.585 103.241 145.924 103.899 142.373C105.167 135.583 105.152 129.262 103.414 125.382C103.398 125.366 103.398 125.351 103.382 125.335C96.1631 123.223 92.1855 112.616 92.1855 112.616C92.1855 112.616 69.3067 119.108 60.9914 151.713C60.9914 151.713 60.5686 153.793 60.0361 156.907C59.8795 157.861 59.7073 158.925 59.535 160.052C58.6424 165.856 58.1413 173.303 57.6089 178.841C57.5932 179.029 57.5776 179.232 57.5462 179.436C57.28 181.814 56.8259 184.599 57.7028 185.522Z" fill="#F7941D"/>
<path d="M88.0514 180.015C88.0514 180.015 84.2148 180.515 76.4632 181.094C68.4298 181.689 59.9265 182.956 58.5328 185.647C58.0787 186.539 58.3919 188.792 59.2845 191.921C61.2576 198.82 66.0652 209.928 71.5461 219.784C57.468 220.598 38.3161 223.711 38.3161 223.711C35.1842 227.247 36.4996 231.393 36.4996 231.393C37.5018 231.409 40.5242 231.831 44.6427 232.488C59.582 234.897 77.7786 239.826 89.0536 239.826C91.5279 239.826 93.36 238.073 94.1117 235.789C98.7626 221.677 88.0514 180.015 88.0514 180.015Z" fill="#2B478B"/>
<path d="M59.2845 192.969C67.0517 192.718 86.548 183.159 86.2348 183.081C82.6018 182.189 79.3602 181.579 76.4632 181.188C68.4297 181.829 59.9265 183.206 58.5328 186.147C58.0787 187.117 58.3918 189.574 59.2845 192.969Z" fill="#2C3A64"/>
<path d="M84.246 134.894C84.246 134.894 84.7001 170.221 97.4001 173.819C95.8028 168.14 98.9818 158.409 100.344 154.638C97.0713 145.548 91.0423 136.396 84.246 134.894Z" fill="#E58638"/>
<path d="M88.3332 114.196C88.3332 114.196 98.1048 116.23 99.0601 124.788C99.7491 131.03 92.9371 145.142 92.9371 145.142L91.6374 143.843C91.6374 143.843 97.6194 126.415 96.7111 123.442C95.5367 119.64 89.9148 113.945 84.7314 116.23L88.3332 114.196Z" fill="#2B478B"/>
<path d="M57.7028 185.522C62.9488 191.076 102.333 179.702 99.1071 176.776C98.2928 176.025 97.7291 175.008 97.4002 173.819C95.8029 168.14 98.9819 158.409 100.344 154.638C100.657 153.762 100.877 153.215 100.924 153.105L98.9349 151.118L91.6531 143.859C91.6531 143.859 89.4921 146.3 85.4205 149.069C80.0806 152.698 71.4521 156.907 60.0361 156.923C59.8795 157.877 59.7073 158.941 59.535 160.067C58.6424 165.871 58.1413 173.319 57.6089 178.857C57.5932 179.045 57.5776 179.248 57.5462 179.451C57.28 181.814 56.8259 184.599 57.7028 185.522Z" fill="#2B478B"/>
<path d="M85.4207 149.068C86.877 159.332 90.1342 171.769 97.4003 173.835C95.803 168.155 98.982 158.424 100.344 154.654C99.9216 153.48 99.4518 152.291 98.935 151.134L91.6532 143.874C91.6376 143.843 89.4922 146.299 85.4207 149.068Z" fill="#2C3A64"/>
<path d="M144.927 172.286C142.547 172.286 138.115 170.111 137.708 170.08C134.31 169.751 137.583 166.419 137.583 166.419C137.583 166.419 142.907 165.245 143.8 165.324C144.097 165.339 144.583 165.449 145.1 165.574L144.52 166.935C144.52 166.935 148.232 167.498 148.279 168.531C148.373 169.563 146.102 172.286 144.927 172.286Z" fill="#FFB27D"/>
<path d="M138.648 168.077C139.462 165.715 138.319 164.98 138.319 164.98C138.319 164.98 115.049 153.95 113.138 152.745C111.228 151.525 98.4338 128.245 98.4338 128.245C98.4338 128.245 93.6889 118.717 87.6442 118.921C82.3982 119.093 79.4699 122.363 77.8569 125.789C75.9308 129.872 76.7451 134.722 79.8457 138.008C86.8143 145.376 100.814 159.973 104.431 162.179C112.496 167.107 136.69 171.097 136.69 171.097C136.69 171.097 138.006 169.939 138.648 168.077Z" fill="#F7941D"/>
<path d="M247.546 224.868C245.604 233.598 238.98 240.576 232.763 240.451C226.546 240.326 223.07 233.16 225.027 224.43C226.985 215.7 233.593 208.723 239.81 208.848C246.011 208.973 249.488 216.138 247.546 224.868Z" fill="#8097D8"/>
<path d="M246.136 224.556C244.195 233.286 237.571 240.264 231.354 240.138C225.137 240.013 221.66 232.848 223.618 224.118C225.56 215.388 232.184 208.41 238.401 208.535C244.617 208.645 248.094 215.826 246.136 224.556Z" fill="#C2D2FF"/>
<path d="M231.949 237.854C231.902 237.854 231.855 237.854 231.808 237.854C229.803 237.807 228.081 236.931 226.797 235.304C224.761 232.707 224.134 228.514 225.121 224.071C226.781 216.593 232.481 210.6 237.821 210.71C239.826 210.757 241.548 211.633 242.832 213.26C244.868 215.857 245.494 220.05 244.508 224.493C242.864 231.893 237.242 237.854 231.949 237.854ZM237.696 210.866C232.465 210.866 226.922 216.765 225.293 224.102C224.307 228.498 224.933 232.644 226.938 235.194C228.19 236.775 229.882 237.635 231.823 237.682C231.87 237.682 231.917 237.682 231.964 237.682C237.195 237.682 242.738 231.784 244.367 224.446C245.353 220.05 244.727 215.904 242.723 213.354C241.47 211.774 239.779 210.913 237.837 210.866C237.774 210.866 237.743 210.866 237.696 210.866Z" fill="#8097D8"/>
</svg>
