<svg width="34" height="34" viewBox="0 0 34 34" fill="none" xmlns="http://www.w3.org/2000/svg">
<circle cx="17" cy="17" r="17" fill="#FFB27D"/>
<g clip-path="url(#clip0_1_1363)">
<path d="M12.0982 16.1875C12.8143 16.1869 13.5081 15.9381 14.0614 15.4834C14.6146 15.0286 14.9931 14.3961 15.1324 13.6937C15.2716 12.9912 15.163 12.2621 14.825 11.6308C14.487 10.9994 13.9405 10.5047 13.2788 10.231C12.617 9.95737 11.8808 9.9216 11.1955 10.1298C10.5103 10.3381 9.91853 10.7775 9.52093 11.3731C9.12334 11.9687 8.94455 12.6838 9.01503 13.3965C9.08552 14.1091 9.40091 14.7753 9.90748 15.2816C10.195 15.5694 10.5365 15.7976 10.9125 15.953C11.2884 16.1085 11.6914 16.1882 12.0982 16.1875ZM11.2333 12.2259C11.4334 12.0258 11.6967 11.9013 11.9783 11.8736C12.2599 11.8459 12.5424 11.9166 12.7777 12.0739C13.013 12.2311 13.1864 12.465 13.2686 12.7358C13.3507 13.0066 13.3364 13.2975 13.2281 13.5589C13.1198 13.8203 12.9242 14.0361 12.6747 14.1695C12.4251 14.3029 12.137 14.3456 11.8595 14.2904C11.582 14.2352 11.3322 14.0855 11.1526 13.8668C10.9731 13.648 10.875 13.3738 10.875 13.0908C10.8746 12.9301 10.906 12.7709 10.9675 12.6225C11.029 12.474 11.1193 12.3392 11.2333 12.2259ZM20.9019 16.8107C20.1851 16.8107 19.4905 17.0592 18.9364 17.5139C18.3823 17.9687 18.003 18.6014 17.8631 19.3044C17.7233 20.0075 17.8315 20.7372 18.1694 21.3694C18.5073 22.0015 19.0539 22.497 19.7162 22.7713C20.3784 23.0456 21.1152 23.0818 21.8012 22.8737C22.4871 22.6656 23.0796 22.2262 23.4779 21.6302C23.8761 21.0342 24.0554 20.3186 23.9851 19.6052C23.9148 18.8919 23.5994 18.225 23.0926 17.7181C22.8056 17.4295 22.4642 17.2007 22.0881 17.045C21.7121 16.8892 21.3089 16.8096 20.9019 16.8107ZM21.7667 20.7738C21.5371 21.0017 21.2264 21.1294 20.9028 21.1288C20.5792 21.1282 20.269 20.9993 20.0402 20.7705C19.8114 20.5417 19.6826 20.2315 19.682 19.9079C19.6814 19.5843 19.809 19.2737 20.037 19.044C20.1504 18.9297 20.2853 18.8389 20.4338 18.7769C20.5824 18.7149 20.7418 18.6828 20.9028 18.6825C21.0638 18.6822 21.2233 18.7137 21.3721 18.7752C21.5209 18.8366 21.6561 18.9269 21.77 19.0408C21.8838 19.1546 21.9741 19.2898 22.0356 19.4386C22.097 19.5875 22.1285 19.7469 22.1282 19.908C22.1279 20.069 22.0958 20.2283 22.0338 20.3769C21.9718 20.5255 21.881 20.6604 21.7667 20.7738L21.7667 20.7738ZM22.7326 10.2673C22.8197 10.3543 22.8887 10.4577 22.9358 10.5714C22.9829 10.6851 23.0072 10.8071 23.0072 10.9302C23.0072 11.0533 22.9829 11.1752 22.9358 11.2889C22.8887 11.4027 22.8197 11.506 22.7326 11.5931L11.5933 22.7324C11.4172 22.9071 11.1791 23.0049 10.9311 23.0045C10.6831 23.004 10.4454 22.9052 10.27 22.7299C10.0946 22.5545 9.99591 22.3168 9.99543 22.0688C9.99496 21.8207 10.0928 21.5826 10.2675 21.4066L21.4068 10.2673C21.5826 10.0914 21.8211 9.99268 22.0697 9.99268C22.3183 9.99268 22.5568 10.0914 22.7326 10.2673Z" fill="white"/>
</g>
<defs>
<clipPath id="clip0_1_1363">
<rect width="15" height="15" fill="white" transform="translate(9 9)"/>
</clipPath>
</defs>
</svg>
